PathFileType	4	(X/Y/Z)	./resultDataOpenSim/trcMotMarkerGrf/sub09/qtm-02-07.trc
DataRate	CameraRate	NumFrames	NumMarkers	Units	OrigDataRate	OrigDataStartFrame	OrigNumFrames
250.000000	250.000000	14	24	m	250.000000	122	485
Frame#	Time	L.Toe.Tip			R.Toe.Tip			L.Ankle.Lat			R.Ankle.Lat			L.Ankle.Med			R.Ankle.Med			L.Heel			R.Heel			L.Knee.Lat			R.Knee.Lat			L.Knee.Med			R.Knee.Med			L.Thigh.Upper			R.Thigh.Upper			L.ASIS			R.ASIS			V.Sacral			L.Acromium			R.Acromium			C7			L.Elbow			R.Elbow			L.Wrist.Lat			R.Wrist.Lat
		X1	Y1	Z1	X2	Y2	Z2	X3	Y3	Z3	X4	Y4	Z4	X5	Y5	Z5	X6	Y6	Z6	X7	Y7	Z7	X8	Y8	Z8	X9	Y9	Z9	X10	Y10	Z10	X11	Y11	Z11	X12	Y12	Z12	X13	Y13	Z13	X14	Y14	Z14	X15	Y15	Z15	X16	Y16	Z16	X17	Y17	Z17	X18	Y18	Z18	X19	Y19	Z19	X20	Y20	Z20	X21	Y21	Z21	X22	Y22	Z22	X23	Y23	Z23	X24	Y24	Z24

122	0.484	-0.23870324	0.082747045	-0.023142621	-0.66520405	0.03880447	0.075567957	-0.3892792	0.096377915	-0.058570483	-0.81110158	0.057073165	0.10204831	-0.36783264	0.1175672	0.036234806	-0.79766803	0.094224173	0.011308031	-0.45168171	0.048076845	-0.0093225643	-0.88032981	0.037612323	0.049816734	-0.39319863	0.51587984	-0.09157583	-0.6664938	0.49248952	0.17270538	-0.3965555	0.51034128	0.03419584	-0.68273032	0.48678594	0.04442604	-0.58278981	0.89034132	-0.13517488	-0.64766473	0.89815269	0.23517813	-0.52026459	0.97581184	-0.066682475	-0.53494615	0.97969128	0.17201638	-0.69563456	1.0292919	0.036963057	-0.53617444	1.4285781	-0.12891609	-0.56010325	1.4419567	0.19996233	-0.61509029	1.4845284	0.03319614	-0.68640597	1.0938609	-0.17463789	-0.66578082	1.0810988	0.28323616	-0.57756481	0.85640144	-0.22068922	-0.4357456	0.92159742	0.26390527
123	0.488	-0.22016469	0.085489582	-0.021912261	-0.66517623	0.038752277	0.075642739	-0.3710494	0.095229806	-0.057837453	-0.81110966	0.057325072	0.10171106	-0.35037784	0.11736245	0.037129758	-0.79735699	0.09434081	0.011053207	-0.43226012	0.045549526	-0.0085092391	-0.88029826	0.037893114	0.049354127	-0.38637689	0.51438074	-0.091864927	-0.66397524	0.49202704	0.17274154	-0.38954322	0.50899058	0.033832301	-0.68035818	0.48648889	0.044460847	-0.57662694	0.8887673	-0.13522098	-0.64225718	0.89735222	0.23523654	-0.51369433	0.97441328	-0.066536241	-0.52886317	0.97858072	0.1722231	-0.68918121	1.0279683	0.036968843	-0.53012451	1.4273864	-0.12901826	-0.55389921	1.4406794	0.19993564	-0.60891147	1.483279	0.033172459	-0.68177218	1.0934324	-0.17496729	-0.65906365	1.079414	0.28330968	-0.57412088	0.85550717	-0.22153188	-0.42742935	0.92221616	0.26308682
124	0.492	-0.20191749	0.088471903	-0.020574257	-0.66515886	0.038715545	0.075663034	-0.35300109	0.09430743	-0.057054629	-0.81115241	0.057551601	0.10139005	-0.33313269	0.11732691	0.037951937	-0.79701263	0.094484265	0.010808436	-0.41301809	0.043277343	-0.0077330379	-0.88026365	0.03820687	0.04887949	-0.37962515	0.51280542	-0.09217564	-0.66131994	0.49153433	0.17277947	-0.38245337	0.50753229	0.033601756	-0.67797459	0.48615047	0.044520136	-0.57037938	0.88711419	-0.13522525	-0.63678685	0.89648115	0.23526767	-0.50711387	0.97293849	-0.066388264	-0.52278226	0.97739861	0.17244164	-0.68270857	1.0265259	0.036931746	-0.52406561	1.4261313	-0.12911009	-0.54768239	1.43932	0.19991734	-0.60273364	1.4819559	0.033147967	-0.6771639	1.0929396	-0.17530815	-0.65233021	1.0776611	0.2833912	-0.57064394	0.85454692	-0.22238971	-0.41917239	0.92275202	0.26231216
125	0.496	-0.18398692	0.091650699	-0.019171078	-0.6651511	0.038678795	0.075649972	-0.33518305	0.093601592	-0.056245333	-0.81119908	0.057767563	0.1011044	-0.31608725	0.11747614	0.038697397	-0.79662516	0.094660299	0.01057567	-0.39394875	0.04123507	-0.006958417	-0.88020384	0.03856512	0.048398776	-0.37292897	0.51116863	-0.092506958	-0.65853477	0.49101138	0.17281988	-0.37539622	0.50593975	0.033485341	-0.67558267	0.48576216	0.044620784	-0.56399984	0.88538961	-0.13516572	-0.63128695	0.89554358	0.23529944	-0.5005131	0.97138625	-0.06623057	-0.51677425	0.97611557	0.17266928	-0.67620914	1.0249745	0.036858254	-0.51799878	1.4248157	-0.12919221	-0.54145423	1.4378903	0.19990642	-0.59654832	1.4805616	0.03311932	-0.67249749	1.092365	-0.17566584	-0.64559253	1.0758526	0.28349098	-0.56715951	0.85351632	-0.22327443	-0.41097	0.92319692	0.2615838
126	0.5	-0.16639473	0.094970594	-0.017781395	-0.66513809	0.038637394	0.075656363	-0.31764541	0.093094918	-0.055451899	-0.81122223	0.05799038	0.10085831	-0.29923956	0.11781666	0.039375549	-0.79620844	0.094878483	0.010360816	-0.37507367	0.039416669	-0.0061583151	-0.8801044	0.038970371	0.047908992	-0.36627855	0.50944618	-0.09282225	-0.65562619	0.4904582	0.17286367	-0.36852359	0.50418465	0.033415068	-0.67315123	0.4853196	0.044758834	-0.55751588	0.88359172	-0.13504256	-0.62575363	0.89453347	0.23532698	-0.49388745	0.96975564	-0.066057412	-0.51089849	0.97470892	0.17290207	-0.66968374	1.0233337	0.03676151	-0.51192457	1.4234424	-0.12926989	-0.53522592	1.4363982	0.1999077	-0.59034415	1.4791106	0.033085115	-0.66764732	1.0916898	-0.17614064	-0.63885382	1.0739964	0.28361084	-0.56365647	0.85242085	-0.22417571	-0.40281949	0.92355023	0.26088805
127	0.504	-0.14915336	0.098380704	-0.016475858	-0.66510948	0.038595335	0.075708829	-0.30040706	0.092780234	-0.054704823	-0.81121468	0.058228937	0.10063117	-0.28261757	0.11832689	0.039996909	-0.79578405	0.095141772	0.010150816	-0.35643577	0.037830896	-0.0053444301	-0.87996121	0.039415868	0.047389431	-0.35965382	0.50762107	-0.093074652	-0.65260117	0.48987496	0.17291181	-0.36186604	0.50225963	0.033362408	-0.6706248	0.48482451	0.044923576	-0.55097936	0.881719	-0.13487447	-0.62017743	0.89344875	0.23533865	-0.48724607	0.9680487	-0.065874704	-0.50511695	0.97319366	0.17313709	-0.66315337	1.0216073	0.036677552	-0.50584636	1.4220162	-0.12935228	-0.5290029	1.4348433	0.19991806	-0.58411674	1.4776117	0.033048353	-0.66255521	1.090916	-0.17674414	-0.63210242	1.0720861	0.2837402	-0.56013532	0.85126159	-0.22509303	-0.39471961	0.92382162	0.26021281
128	0.508	-0.13227088	0.10184547	-0.015283967	-0.66506615	0.038554333	0.07579811	-0.28344608	0.092670533	-0.054007263	-0.81118538	0.058484778	0.10038328	-0.26626881	0.11897055	0.04057847	-0.79535364	0.095443637	0.0099144582	-0.33808746	0.036483822	-0.0045575922	-0.87977678	0.039893495	0.04680643	-0.35303812	0.50570354	-0.093234349	-0.64946755	0.48926199	0.1729652	-0.35532481	0.50019453	0.033353319	-0.66793857	0.48427742	0.045110271	-0.54441797	0.87977002	-0.13468746	-0.61456777	0.89229519	0.23533836	-0.4806062	0.96627483	-0.065700298	-0.49929917	0.97162021	0.1733739	-0.65665811	1.0197584	0.036651383	-0.4997672	1.4205407	-0.12944079	-0.52277576	1.4332244	0.19992636	-0.57787709	1.4760605	0.033015261	-0.65730157	1.0900661	-0.17734496	-0.62532389	1.0701084	0.28386515	-0.55662164	0.85002961	-0.22604497	-0.38666289	0.92402187	0.25956301
129	0.512	-0.11577076	0.105337	-0.014206459	-0.66501151	0.038511303	0.075906575	-0.2667526	0.09277144	-0.053355218	-0.81114491	0.058764259	0.10008229	-0.25022922	0.11971772	0.041135446	-0.79488797	0.095778162	0.0096406414	-0.32008051	0.035371015	-0.003846568	-0.87956049	0.040403904	0.046138527	-0.34641556	0.50371609	-0.093295671	-0.64623348	0.48861972	0.17302473	-0.34878892	0.4980439	0.033413542	-0.66505344	0.48368117	0.045317642	-0.53784135	0.87774199	-0.1344995	-0.60894303	0.89108295	0.23533579	-0.47397633	0.96444821	-0.065549571	-0.4933347	0.97003216	0.1736104	-0.65022376	1.0177329	0.036672845	-0.49368346	1.4190121	-0.12952918	-0.51652923	1.4315457	0.19992825	-0.57164521	1.4744663	0.032994708	-0.65203712	1.0891556	-0.17782508	-0.61851794	1.0680611	0.28398058	-0.55312704	0.84871961	-0.2270411	-0.37864162	0.92415242	0.25894734
130	0.516	-0.099692109	0.10882185	-0.013239519	-0.66494836	0.038464206	0.076021542	-0.25037916	0.093048061	-0.05276408	-0.81109705	0.059085378	0.09973285	-0.23451717	0.12054644	0.041661172	-0.79435443	0.096142372	0.0093560714	-0.30246037	0.034480919	-0.0032556854	-0.87932685	0.040959871	0.045402659	-0.33976997	0.50168835	-0.093275782	-0.64290686	0.48794849	0.17309124	-0.34220557	0.49585971	0.033547888	-0.66197195	0.48305029	0.045528215	-0.53125848	0.87564029	-0.13432119	-0.60329857	0.88981366	0.23532114	-0.46735026	0.96257795	-0.065427433	-0.48720039	0.96844183	0.17383833	-0.6438208	1.0155801	0.036633544	-0.4875874	1.4174247	-0.12961092	-0.51026589	1.4298201	0.19993342	-0.56543979	1.4728599	0.032998566	-0.64685959	1.0881826	-0.17818412	-0.61169934	1.0659584	0.28409133	-0.54960555	0.84734724	-0.22805319	-0.37065889	0.92420824	0.25836497
131	0.52	-0.084066022	0.11226275	-0.012377073	-0.66488302	0.038416488	0.076136785	-0.23440875	0.093444771	-0.052267833	-0.81104893	0.059466936	0.099379797	-0.21916405	0.12143337	0.042104653	-0.79375886	0.09653055	0.0090970891	-0.28526375	0.033790447	-0.0028272242	-0.87909155	0.041578326	0.044653148	-0.33308593	0.49966486	-0.093209801	-0.63949513	0.48724857	0.17316561	-0.33558132	0.49367767	0.033752418	-0.65872297	0.48240337	0.045712343	-0.52467787	0.87347727	-0.13415822	-0.59761785	0.88848288	0.23528071	-0.46071515	0.96066692	-0.06533309	-0.4809402	0.96683993	0.17404468	-0.63738545	1.0135293	0.036407855	-0.48147395	1.4157817	-0.12968331	-0.50400993	1.428062	0.19994948	-0.55926919	1.4712531	0.033035753	-0.64176202	1.0871409	-0.17848985	-0.60487987	1.0638212	0.28420191	-0.54596738	0.84594223	-0.22903289	-0.36272219	0.92418498	0.25781302
132	0.524	-0.068910852	0.1156248	-0.011606345	-0.66482689	0.038376726	0.076252448	-0.21889049	0.093925701	-0.051895862	-0.81102358	0.05992043	0.0990823	-0.20422926	0.12234589	0.04239837	-0.79314565	0.096939639	0.008885368	-0.26852196	0.033258332	-0.0026011561	-0.8788708	0.04226907	0.043952462	-0.32634303	0.49768795	-0.093129023	-0.63600556	0.48652015	0.1732487	-0.32895393	0.49151656	0.034020978	-0.65533716	0.48175022	0.045851293	-0.51810048	0.87126177	-0.13400831	-0.59190244	0.88709786	0.23521803	-0.45405894	0.95871844	-0.065259105	-0.47462513	0.96521228	0.1742194	-0.63086157	1.0117795	0.035998791	-0.47534364	1.4140952	-0.12975125	-0.49777695	1.4262789	0.19996891	-0.55311407	1.4696172	0.033091391	-0.63666686	1.0860285	-0.17880455	-0.59805633	1.0616643	0.28430816	-0.54213599	0.84452901	-0.22995123	-0.35483323	0.9240808	0.25729084
133	0.528	-0.054243716	0.11887223	-0.010913041	-0.66479287	0.038354452	0.076370574	-0.20382964	0.094472408	-0.051659148	-0.81104475	0.060449549	0.098882876	-0.18977135	0.12324037	0.042541528	-0.79255743	0.097371613	0.0087259995	-0.25226203	0.032829191	-0.0025983448	-0.87867834	0.043032762	0.043343659	-0.31952124	0.49577548	-0.093041509	-0.63244542	0.48576346	0.1733414	-0.32236096	0.48937913	0.034347133	-0.65182611	0.4810917	0.045938039	-0.51150756	0.86900115	-0.13387479	-0.58616656	0.88567841	0.23514094	-0.44737504	0.9567363	-0.065195241	-0.46831331	0.96355297	0.17436345	-0.6242133	1.0102262	0.035608769	-0.46919906	1.4123739	-0.12982662	-0.491554	1.42447	0.19997915	-0.54690995	1.4679127	0.033104048	-0.63149535	1.0848528	-0.17915466	-0.59122023	1.059492	0.28440047	-0.53808345	0.84311531	-0.23080421	-0.34699049	0.92389473	0.25679501
134	0.532	-0.04007658	0.12196744	-0.010280666	-0.66478692	0.038353289	0.076488142	-0.1892235	0.095059194	-0.051553803	-0.81110116	0.061041643	0.098784449	-0.17581822	0.12407659	0.042610402	-0.79200552	0.097825548	0.0086107197	-0.23650637	0.032450334	-0.0028038393	-0.87851966	0.043867885	0.042845551	-0.31261358	0.4939275	-0.092939767	-0.62882205	0.4849787	0.17344458	-0.3158292	0.48725555	0.03472242	-0.64818271	0.48042067	0.045970231	-0.50486876	0.86670639	-0.13377258	-0.58042001	0.884241	0.23505079	-0.44066567	0.95472201	-0.065140841	-0.46202385	0.96186924	0.17448554	-0.61748506	1.0085875	0.035514725	-0.46303786	1.4106191	-0.12991851	-0.48531547	1.4226347	0.19997452	-0.54057755	1.4661216	0.03299835	-0.62621161	1.0836248	-0.17953436	-0.58437276	1.0573057	0.2844743	-0.53384824	0.84168119	-0.23160739	-0.33919334	0.9236244	0.25632003
135	0.536	-0.02640926	0.12487467	-0.0096832927	-0.66479848	0.038364511	0.076593106	-0.17508288	0.095652224	-0.051566447	-0.81114166	0.061665965	0.098750349	-0.16237629	0.12483169	0.042664308	-0.79147482	0.098298354	0.0085240258	-0.22128997	0.032101441	-0.0031829819	-0.87839042	0.044778094	0.04245887	-0.3056335	0.49213691	-0.092811309	-0.62514287	0.48416612	0.17355913	-0.30937507	0.48513184	0.035130831	-0.64438569	0.47971978	0.045953363	-0.49815936	0.86439206	-0.1337148	-0.57466072	0.88278855	0.23494296	-0.43393627	0.95267957	-0.065100507	-0.45574417	0.9601753	0.1745907	-0.61082207	1.0067677	0.035823922	-0.45685154	1.4088299	-0.13002426	-0.4790426	1.4207779	0.19995531	-0.53411316	1.4642626	0.032780838	-0.62081717	1.0823488	-0.17992689	-0.5775203	1.0551092	0.28453158	-0.52952632	0.84018771	-0.23240036	-0.33144236	0.9232676	0.25586296
